<svg width="71" height="71" viewBox="0 0 71 71" fill="none" xmlns="http://www.w3.org/2000/svg">
<path d="M56.2083 14.7917H47.3333L45.3335 9.46272C44.7576 7.92439 43.2863 6.90278 41.6415 6.90278H29.3585C27.7137 6.90278 26.2424 7.92439 25.6665 9.46272L23.6667 14.7917H14.7917C10.433 14.7917 6.90277 18.3219 6.90277 22.6806V48.3194C6.90277 52.6781 10.433 56.2083 14.7917 56.2083H56.2083C60.5669 56.2083 64.0972 52.6781 64.0972 48.3194V22.6806C64.0972 18.3219 60.5669 14.7917 56.2083 14.7917Z" stroke="#0D1321" stroke-width="4" stroke-linecap="round" stroke-linejoin="round"/>
<path d="M35.5 46.3472C41.4907 46.3472 46.3472 41.4908 46.3472 35.5C46.3472 29.5092 41.4907 24.6528 35.5 24.6528C29.5092 24.6528 24.6528 29.5092 24.6528 35.5C24.6528 41.4908 29.5092 46.3472 35.5 46.3472Z" stroke="#0D1321" stroke-width="4" stroke-linecap="round" stroke-linejoin="round"/>
<path d="M16.7639 27.6111C18.3977 27.6111 19.7222 26.2866 19.7222 24.6528C19.7222 23.0189 18.3977 21.6944 16.7639 21.6944C15.13 21.6944 13.8055 23.0189 13.8055 24.6528C13.8055 26.2866 15.13 27.6111 16.7639 27.6111Z" fill="#0D1321"/>
</svg>
