<svg width="39" height="36" viewBox="0 0 39 36" fill="none" xmlns="http://www.w3.org/2000/svg">
<rect y="6" width="30" height="30" rx="2" fill="#0D1321"/>
<path d="M31.193 2.6937C32.4948 1.39195 34.6053 1.39194 35.9071 2.69369C37.2088 3.99544 37.2088 6.10599 35.9071 7.40774L23.1791 20.1357C22.3981 20.9167 21.1318 20.9167 20.3507 20.1357L18.4651 18.25C17.6841 17.469 17.6841 16.2027 18.4651 15.4216L31.193 2.6937Z" fill="#AFDFCE"/>
<path d="M16.367 23.4586C15.6234 23.6578 14.943 22.9774 15.1422 22.2338L15.9534 19.2064C16.1527 18.4629 17.0821 18.2138 17.6265 18.7581L19.8427 20.9743C20.387 21.5187 20.138 22.4481 19.3944 22.6474L16.367 23.4586Z" fill="#AFDFCE"/>
</svg>
