<svg width="230" height="107" viewBox="0 0 230 107" fill="none" xmlns="http://www.w3.org/2000/svg">
<g clip-path="url(#clip0_118_304)">
<path d="M90.8686 15.5259L87.4585 18.936L84.0484 22.346L80.6384 25.7561L77.2283 29.1662L81.1599 32.9775L85.0915 36.7887L86.6762 38.3133L89.0432 40.6L92.9748 44.4113L96.9065 48.2225L100.838 52.0338L104.77 55.8451L108.34 59.2953L108.721 59.6564L112.653 63.4676L116.585 67.2789L120.516 71.0902L124.448 74.9014L128.38 78.7127L130.747 80.9995L132.331 82.524L136.263 86.3352L140.194 90.1465L143.063 87.278L145.931 84.4095L148.8 81.5411L151.668 78.6726L147.857 74.7409L144.046 70.8093L142.521 69.2246L140.235 66.8576L136.423 62.926L132.612 58.9944L128.801 55.0628L124.989 51.1311L121.178 47.1995L120.817 46.8184L117.367 43.2478L113.556 39.3162L109.744 35.3846L105.933 31.453L102.122 27.5213L99.8351 25.1543L98.3106 23.5697L94.4993 19.638L90.6881 15.7064L90.8686 15.5259Z" fill="url(#paint0_linear_118_304)"/>
<path d="M230 53.2976V53.3377C229.92 55.2233 229.86 57.1088 229.699 58.9944C229.418 60.8599 229.218 62.7455 228.817 64.5909C227.553 70.7893 225.025 76.7268 221.635 82.0425C218.205 87.3583 213.852 92.0722 208.797 95.8835C203.762 99.6947 198.026 102.603 191.927 104.429C187.073 105.893 181.998 106.495 176.943 106.635H176.903C175.639 106.595 174.396 106.635 173.132 106.515C166.813 106.094 160.535 104.509 154.738 101.881C154.738 101.881 153.273 101.279 150.505 99.7148C148.539 98.5915 145.871 96.9466 142.842 94.4593C142.321 94.0982 141.859 93.7572 141.478 93.4362L135.641 88.3211L135.701 88.2609C135.701 88.2609 135.621 88.301 135.601 88.2609L128.259 81.6614C127.256 80.7587 127.176 79.1941 128.079 78.1711C129.001 77.1681 130.566 77.0879 131.569 77.9906C134.016 80.1971 136.464 82.4036 138.911 84.5901C139.131 84.6502 139.372 84.57 139.492 84.3895C139.653 84.1688 139.553 83.9081 139.553 83.888L128.279 73.738C127.256 72.8353 127.176 71.2707 128.099 70.2477C129.001 69.2447 130.566 69.1444 131.589 70.0671C135.34 73.4371 139.091 76.8271 142.862 80.2171C142.882 80.2171 143.163 80.2573 143.364 80.0366C143.585 79.816 143.504 79.5151 143.504 79.495L131.629 68.8235C130.606 67.9007 130.526 66.3361 131.449 65.3331C132.351 64.3101 133.916 64.2299 134.939 65.1526C138.891 68.7031 142.842 72.2536 146.794 75.8242C146.995 75.8843 147.215 75.8242 147.356 75.6837C147.496 75.5233 147.536 75.3026 147.436 75.1221L137.085 65.7945C136.062 64.8718 135.982 63.3072 136.885 62.2841C137.807 61.2812 139.372 61.2009 140.375 62.1036L150.746 71.4312C150.746 71.4312 150.786 71.4713 150.786 71.4913C153.835 74.2996 156.864 77.1079 159.913 79.9363C159.913 79.495 159.893 78.5522 159.873 77.3687C159.772 70.7893 159.692 69.1043 160.795 68.342C161.457 67.9007 162.38 67.8606 163.062 68.1214C164.526 68.7031 164.587 70.5887 165.69 76.6265C166.512 81.2402 166.954 83.7275 166.552 85.914C169.1 86.7565 171.768 87.278 174.456 87.4585C175.258 87.5588 176.081 87.5388 176.883 87.5789H176.923C180.193 87.4786 183.442 87.1577 186.572 86.2149C190.483 85.0715 194.194 83.226 197.464 80.7989C200.754 78.3516 203.602 75.3227 205.849 71.8925C208.075 68.4624 209.76 64.6511 210.583 60.6393C210.863 59.4558 210.984 58.2321 211.204 57.0286C211.285 55.7849 211.345 54.5613 211.425 53.3377V53.2976C211.285 51.6728 211.385 50.0078 211.044 48.383C210.502 44.3311 209.219 40.3593 207.273 36.7286C205.327 33.1179 202.679 29.8482 199.57 27.1402C196.461 24.4322 192.87 22.2859 189.019 20.8215C185.168 19.3773 181.075 18.615 176.923 18.5548H176.883C172.731 18.5548 168.619 19.2569 164.727 20.6811C160.836 22.1053 157.225 24.2717 154.076 26.9797C153.434 27.4812 152.852 28.083 152.25 28.6246C152.25 28.6447 152.23 28.6447 152.23 28.6647C149.261 31.5934 146.313 34.522 143.344 37.4708C139.653 41.1416 135.942 44.8125 132.251 48.4833C132.251 48.4833 128.56 52.1542 121.158 59.4959C113.817 66.8978 110.146 70.5887 110.146 70.5887C106.475 74.2796 102.804 77.9906 99.1331 81.6815C96.1844 84.6503 93.2558 87.599 90.3271 90.5677C90.307 90.5677 90.287 90.5677 90.287 90.5677C89.3843 91.4303 88.5218 92.3129 87.579 93.0952C82.865 97.2074 77.4089 100.517 71.5115 102.724C65.6341 104.95 59.3355 106.074 53.077 106.114H53.0368C46.7783 106.114 40.4998 104.99 34.6023 102.804C28.7049 100.638 23.1886 97.3879 18.4145 93.2757C13.6604 89.1837 9.58839 84.2491 6.55943 78.7127C3.51042 73.1763 1.48443 67.0984 0.58176 60.8399C0.100336 58.3525 0.140455 55.825 -0.0200195 53.3176V53.2775C0.0602177 51.3919 0.120396 49.5063 0.28087 47.6208C0.5617 45.7553 0.762293 43.8697 1.16348 42.0242C2.42722 35.8259 4.95469 29.8883 8.34471 24.5726C11.7749 19.2569 16.1277 14.543 21.1827 10.7317C26.2176 6.92044 31.9545 4.01184 38.0525 2.18644C41.7033 1.14336 45.4745 0.421224 49.2657 0.160453C50.5094 0.100275 51.7731 0.0400974 53.0368 -0.0200806H53.077C54.3407 0.020038 55.5844 -2.12565e-05 56.8481 0.100275C63.1668 0.521521 69.4454 2.10621 75.2425 4.73397C75.2425 4.73397 76.7068 5.33575 79.475 6.90038C81.4408 8.0237 84.1087 9.66856 87.1377 12.1559C87.6592 12.517 88.1206 12.858 88.5017 13.1789L94.339 18.2941C94.339 18.2941 94.339 18.3342 94.3791 18.3542L101.721 24.9538C102.724 25.8564 102.804 27.4211 101.901 28.4441C100.979 29.447 99.414 29.5273 98.411 28.6246C95.9638 26.4181 93.5165 24.2116 91.0693 22.0251C90.8486 21.9649 90.6079 22.0452 90.4876 22.2257C90.3271 22.4463 90.4274 22.7071 90.4274 22.7272L101.701 32.8772C102.724 33.7799 102.804 35.3445 101.881 36.3675C100.979 37.3705 99.414 37.4708 98.3909 36.548C94.6398 33.1781 90.8887 29.788 87.1176 26.398C87.0975 26.398 86.8167 26.3579 86.6161 26.5786C86.3955 26.7992 86.4757 27.1001 86.4757 27.1202L98.3508 37.7917C99.3738 38.7144 99.4541 40.2791 98.5313 41.282C97.6287 42.3051 96.0641 42.3853 95.041 41.4626C91.0893 37.9121 87.1377 34.3616 83.186 30.791C82.9854 30.7308 82.7647 30.791 82.6243 30.9314C82.4839 31.0919 82.4438 31.3126 82.5441 31.4931L92.8947 40.8207C93.9177 41.7434 93.9979 43.308 93.0953 44.331C92.1726 45.334 90.6079 45.4142 89.6049 44.5116L79.2343 35.184C79.2343 35.184 79.1942 35.1439 79.1942 35.1238C76.1452 32.3155 73.1162 29.5072 70.0672 26.6789C70.0672 27.1202 70.0873 28.063 70.1073 29.2464C70.2076 35.8259 70.2878 37.5109 69.1846 38.2731C68.5226 38.7144 67.5999 38.7546 66.9179 38.4938C65.4536 37.9121 65.3934 36.0265 64.2901 29.9886C63.4677 25.375 63.0264 22.8876 63.4276 20.7012C60.88 19.8587 58.2122 19.3372 55.5242 19.1566C54.7218 19.0563 53.8994 19.0764 53.097 19.0363H53.0569C52.2545 19.0764 51.4321 19.1165 50.6097 19.1566C48.1624 19.297 45.7553 19.7584 43.4084 20.4003C39.4968 21.5437 35.7858 23.3891 32.5162 25.8163C29.2264 28.2635 26.378 31.2925 24.1314 34.7226C21.9048 38.1528 20.2198 41.9641 19.3974 45.9759C19.1166 47.1594 18.9962 48.383 18.7756 49.5866C18.6953 50.8303 18.6351 52.0539 18.5549 53.2775V53.3176C18.6953 54.9424 18.595 56.6073 18.936 58.2321C19.4776 62.2841 20.7614 66.2559 22.7072 69.8866C24.6529 73.4973 27.3008 76.7669 30.4099 79.4749C33.5191 82.183 37.1098 84.3293 40.9611 85.7936C44.8125 87.2379 48.9046 88.0002 53.0569 88.0603H53.097C57.2493 88.0603 61.3615 87.3583 65.253 85.934C69.1445 84.5098 72.7551 82.3434 75.9044 79.6354C76.5463 79.1339 77.1281 78.5322 77.7299 77.9906C77.7299 77.9705 77.7499 77.9705 77.7499 77.9504C80.7187 75.0218 83.6674 72.0931 86.6362 69.1444C90.3271 65.4736 94.0381 61.8027 97.729 58.1318C97.729 58.1318 101.42 54.461 108.822 47.1193C116.163 39.7174 119.834 36.0265 119.834 36.0265C123.505 32.3356 127.176 28.6246 130.847 24.9337C133.796 21.9649 136.724 19.0162 139.653 16.0474C139.673 16.0474 139.693 16.0274 139.693 16.0274C140.596 15.1648 141.458 14.2822 142.401 13.4999C147.115 9.38773 152.571 6.07795 158.469 3.87142C164.346 1.64484 170.645 0.521521 176.903 0.481402H176.943C183.202 0.501461 189.48 1.60472 195.378 3.79119C201.275 5.95759 206.791 9.2072 211.566 13.3194C216.32 17.4115 220.392 22.346 223.421 27.8824C226.47 33.4188 228.496 39.4968 229.398 45.7553C229.88 48.2426 229.84 50.7701 230 53.2775V53.2976Z" fill="url(#paint1_linear_118_304)"/>
</g>
<defs>
<linearGradient id="paint0_linear_118_304" x1="77.2082" y1="52.776" x2="151.708" y2="52.776" gradientUnits="userSpaceOnUse">
<stop offset="0.15" stop-color="#C6D86D"/>
<stop offset="0.49" stop-color="#B0DDCD"/>
<stop offset="0.85" stop-color="#C6D86D"/>
</linearGradient>
<linearGradient id="paint1_linear_118_304" x1="3.97739e-05" y1="53.3176" x2="230" y2="53.3176" gradientUnits="userSpaceOnUse">
<stop stop-color="#168AB1"/>
<stop offset="0.5" stop-color="#003B4A"/>
<stop offset="1" stop-color="#168AB1"/>
</linearGradient>
<clipPath id="clip0_118_304">
<rect width="230" height="106.635" fill="white"/>
</clipPath>
</defs>
</svg>
